<svg width="64" height="12" viewBox="0 0 64 12" fill="none" xmlns="http://www.w3.org/2000/svg">
<path d="M12.3203 4.35547C12.3594 4.47266 12.3633 4.59375 12.332 4.71875C12.3008 4.84375 12.2344 4.94922 12.1328 5.03516L9.51953 7.33203L10.293 10.7305C10.3164 10.8555 10.3047 10.9766 10.2578 11.0938C10.2188 11.2109 10.1484 11.3086 10.0469 11.3867C9.9375 11.4648 9.82031 11.5039 9.69531 11.5039C9.57031 11.5117 9.45312 11.4844 9.34375 11.4219L6.35547 9.62891L3.36719 11.4219C3.32031 11.4453 3.26562 11.4648 3.20312 11.4805C3.14844 11.4961 3.09375 11.5039 3.03906 11.5039C2.97656 11.5039 2.91016 11.4922 2.83984 11.4688C2.77734 11.4531 2.71875 11.4258 2.66406 11.3867C2.5625 11.3086 2.48828 11.2109 2.44141 11.0938C2.40234 10.9766 2.39453 10.8555 2.41797 10.7305L3.19141 7.33203L0.578125 5.03516C0.476562 4.94922 0.410156 4.84375 0.378906 4.71875C0.347656 4.59375 0.351562 4.47266 0.390625 4.35547C0.429688 4.23047 0.496094 4.12891 0.589844 4.05078C0.691406 3.97266 0.804688 3.92578 0.929688 3.91016L4.39844 3.60547L5.76953 0.394531C5.81641 0.277344 5.89453 0.183594 6.00391 0.113281C6.11328 0.0429688 6.23047 0.0078125 6.35547 0.0078125C6.48047 0.0078125 6.59766 0.0429688 6.70703 0.113281C6.81641 0.183594 6.89453 0.277344 6.94141 0.394531L8.3125 3.60547L11.7812 3.91016C11.9062 3.92578 12.0156 3.97266 12.1094 4.05078C12.2109 4.12891 12.2812 4.23047 12.3203 4.35547ZM25.0403 4.35547C25.0794 4.47266 25.0833 4.59375 25.052 4.71875C25.0208 4.84375 24.9544 4.94922 24.8528 5.03516L22.2395 7.33203L23.013 10.7305C23.0364 10.8555 23.0247 10.9766 22.9778 11.0938C22.9388 11.2109 22.8684 11.3086 22.7669 11.3867C22.6575 11.4648 22.5403 11.5039 22.4153 11.5039C22.2903 11.5117 22.1731 11.4844 22.0638 11.4219L19.0755 9.62891L16.0872 11.4219C16.0403 11.4453 15.9856 11.4648 15.9231 11.4805C15.8684 11.4961 15.8138 11.5039 15.7591 11.5039C15.6966 11.5039 15.6302 11.4922 15.5598 11.4688C15.4973 11.4531 15.4388 11.4258 15.3841 11.3867C15.2825 11.3086 15.2083 11.2109 15.1614 11.0938C15.1223 10.9766 15.1145 10.8555 15.138 10.7305L15.9114 7.33203L13.2981 5.03516C13.1966 4.94922 13.1302 4.84375 13.0989 4.71875C13.0677 4.59375 13.0716 4.47266 13.1106 4.35547C13.1497 4.23047 13.2161 4.12891 13.3098 4.05078C13.4114 3.97266 13.5247 3.92578 13.6497 3.91016L17.1184 3.60547L18.4895 0.394531C18.5364 0.277344 18.6145 0.183594 18.7239 0.113281C18.8333 0.0429688 18.9505 0.0078125 19.0755 0.0078125C19.2005 0.0078125 19.3177 0.0429688 19.427 0.113281C19.5364 0.183594 19.6145 0.277344 19.6614 0.394531L21.0325 3.60547L24.5013 3.91016C24.6263 3.92578 24.7356 3.97266 24.8294 4.05078C24.9309 4.12891 25.0013 4.23047 25.0403 4.35547ZM37.7603 4.35547C37.7994 4.47266 37.8033 4.59375 37.772 4.71875C37.7408 4.84375 37.6744 4.94922 37.5728 5.03516L34.9595 7.33203L35.733 10.7305C35.7564 10.8555 35.7447 10.9766 35.6978 11.0938C35.6588 11.2109 35.5884 11.3086 35.4869 11.3867C35.3775 11.4648 35.2603 11.5039 35.1353 11.5039C35.0103 11.5117 34.8931 11.4844 34.7838 11.4219L31.7955 9.62891L28.8072 11.4219C28.7603 11.4453 28.7056 11.4648 28.6431 11.4805C28.5884 11.4961 28.5338 11.5039 28.4791 11.5039C28.4166 11.5039 28.3502 11.4922 28.2798 11.4688C28.2173 11.4531 28.1588 11.4258 28.1041 11.3867C28.0025 11.3086 27.9283 11.2109 27.8814 11.0938C27.8423 10.9766 27.8345 10.8555 27.858 10.7305L28.6314 7.33203L26.0181 5.03516C25.9166 4.94922 25.8502 4.84375 25.8189 4.71875C25.7877 4.59375 25.7916 4.47266 25.8306 4.35547C25.8697 4.23047 25.9361 4.12891 26.0298 4.05078C26.1314 3.97266 26.2447 3.92578 26.3697 3.91016L29.8384 3.60547L31.2095 0.394531C31.2564 0.277344 31.3345 0.183594 31.4439 0.113281C31.5533 0.0429688 31.6705 0.0078125 31.7955 0.0078125C31.9205 0.0078125 32.0377 0.0429688 32.147 0.113281C32.2564 0.183594 32.3345 0.277344 32.3814 0.394531L33.7525 3.60547L37.2213 3.91016C37.3463 3.92578 37.4556 3.97266 37.5494 4.05078C37.6509 4.12891 37.7213 4.23047 37.7603 4.35547ZM50.4803 4.35547C50.5194 4.47266 50.5233 4.59375 50.492 4.71875C50.4608 4.84375 50.3944 4.94922 50.2928 5.03516L47.6795 7.33203L48.453 10.7305C48.4764 10.8555 48.4647 10.9766 48.4178 11.0938C48.3787 11.2109 48.3084 11.3086 48.2069 11.3867C48.0975 11.4648 47.9803 11.5039 47.8553 11.5039C47.7303 11.5117 47.6131 11.4844 47.5037 11.4219L44.5155 9.62891L41.5272 11.4219C41.4803 11.4453 41.4256 11.4648 41.3631 11.4805C41.3084 11.4961 41.2537 11.5039 41.1991 11.5039C41.1366 11.5039 41.0702 11.4922 40.9998 11.4688C40.9373 11.4531 40.8787 11.4258 40.8241 11.3867C40.7225 11.3086 40.6483 11.2109 40.6014 11.0938C40.5623 10.9766 40.5545 10.8555 40.578 10.7305L41.3514 7.33203L38.7381 5.03516C38.6366 4.94922 38.5702 4.84375 38.5389 4.71875C38.5077 4.59375 38.5116 4.47266 38.5506 4.35547C38.5897 4.23047 38.6561 4.12891 38.7498 4.05078C38.8514 3.97266 38.9647 3.92578 39.0897 3.91016L42.5584 3.60547L43.9295 0.394531C43.9764 0.277344 44.0545 0.183594 44.1639 0.113281C44.2733 0.0429688 44.3905 0.0078125 44.5155 0.0078125C44.6405 0.0078125 44.7577 0.0429688 44.867 0.113281C44.9764 0.183594 45.0545 0.277344 45.1014 0.394531L46.4725 3.60547L49.9412 3.91016C50.0662 3.92578 50.1756 3.97266 50.2694 4.05078C50.3709 4.12891 50.4412 4.23047 50.4803 4.35547ZM63.2003 4.35547C63.2394 4.47266 63.2433 4.59375 63.212 4.71875C63.1808 4.84375 63.1144 4.94922 63.0128 5.03516L60.3995 7.33203L61.173 10.7305C61.1964 10.8555 61.1847 10.9766 61.1378 11.0938C61.0988 11.2109 61.0284 11.3086 60.9269 11.3867C60.8175 11.4648 60.7003 11.5039 60.5753 11.5039C60.4503 11.5117 60.3331 11.4844 60.2238 11.4219L57.2355 9.62891L54.2472 11.4219C54.2003 11.4453 54.1456 11.4648 54.0831 11.4805C54.0284 11.4961 53.9738 11.5039 53.9191 11.5039C53.8566 11.5039 53.7902 11.4922 53.7198 11.4688C53.6573 11.4531 53.5988 11.4258 53.5441 11.3867C53.4425 11.3086 53.3683 11.2109 53.3214 11.0938C53.2823 10.9766 53.2745 10.8555 53.298 10.7305L54.0714 7.33203L51.4581 5.03516C51.3566 4.94922 51.2902 4.84375 51.2589 4.71875C51.2277 4.59375 51.2316 4.47266 51.2706 4.35547C51.3097 4.23047 51.3761 4.12891 51.4698 4.05078C51.5714 3.97266 51.6847 3.92578 51.8097 3.91016L55.2784 3.60547L56.6495 0.394531C56.6964 0.277344 56.7745 0.183594 56.8839 0.113281C56.9933 0.0429688 57.1105 0.0078125 57.2355 0.0078125C57.3605 0.0078125 57.4777 0.0429688 57.587 0.113281C57.6964 0.183594 57.7745 0.277344 57.8214 0.394531L59.1925 3.60547L62.6613 3.91016C62.7863 3.92578 62.8956 3.97266 62.9894 4.05078C63.0909 4.12891 63.1613 4.23047 63.2003 4.35547Z" fill="#FFB800"/>
</svg>
